<svg xmlns="http://www.w3.org/2000/svg" width="23" height="23" viewBox="0 0 23 23"><defs><style>.a{fill:rgba(0,0,0,0.5);}</style></defs><path class="a" d="M-2634.849-5831.668a2.132,2.132,0,0,1-2.17-2.09v-16.17a2.132,2.132,0,0,1,2.17-2.09h.759v1.324a1.636,1.636,0,0,0,1.664,1.6,1.636,1.636,0,0,0,1.663-1.6v-1.324h10.487v1.324a1.636,1.636,0,0,0,1.663,1.6,1.636,1.636,0,0,0,1.664-1.6v-1.324h.759a2.131,2.131,0,0,1,2.17,2.09v16.17a2.131,2.131,0,0,1-2.17,2.09Zm.507-13.74v10.475a.817.817,0,0,0,.868.755h15.911a.817.817,0,0,0,.868-.755v-10.475a.818.818,0,0,0-.868-.757h-15.911A.818.818,0,0,0-2634.342-5845.408Zm12.317,9.8v-4.15h4.209v4.15Zm-5.5,0v-4.15h4.209v4.15Zm-5.3,0v-4.15h4.209v4.15Zm10.8-5.1v-4.151h4.209v4.151Zm-5.5,0v-4.151h4.209v4.151Zm-5.3,0v-4.151h4.209v4.151Zm13.414-9.988v-3.207a.782.782,0,0,1,.8-.766.782.782,0,0,1,.8.766v3.207a.782.782,0,0,1-.8.767A.782.782,0,0,1-2619.407-5850.7Zm-13.814,0v-3.207a.782.782,0,0,1,.8-.766.782.782,0,0,1,.8.766v3.207a.782.782,0,0,1-.8.767A.782.782,0,0,1-2633.221-5850.7Z" transform="translate(2637.019 5854.668)"/></svg>