<svg xmlns="http://www.w3.org/2000/svg" width="29.909" height="31" viewBox="0 0 29.909 31"><defs><style>.a{fill:#4bbfaa;stroke:rgba(0,0,0,0);}</style></defs><path class="a" d="M-2634.292-5824.669a2.728,2.728,0,0,1-2.728-2.726v-21.093a2.729,2.729,0,0,1,2.728-2.728h.955v1.729a2.094,2.094,0,0,0,2.092,2.091,2.093,2.093,0,0,0,2.09-2.091v-1.729h13.182v1.729a2.093,2.093,0,0,0,2.09,2.091,2.094,2.094,0,0,0,2.092-2.091v-1.729h.953a2.727,2.727,0,0,1,2.727,2.728v21.093a2.727,2.727,0,0,1-2.727,2.726Zm.637-17.921v13.662a1.041,1.041,0,0,0,1.091.985h20a1.042,1.042,0,0,0,1.092-.985v-13.662a1.043,1.043,0,0,0-1.092-.987h-20A1.042,1.042,0,0,0-2633.655-5842.59Zm15.481,12.786v-5.415h5.291v5.415Zm-6.909,0v-5.415h5.291v5.415Zm-6.661,0v-5.415h5.291v5.415Zm13.57-6.654v-5.415h5.291v5.415Zm-6.909,0v-5.415h5.291v5.415Zm-6.661,0v-5.415h5.291v5.415Zm16.86-13.028v-4.183a1,1,0,0,1,1-1,1,1,0,0,1,1,1v4.183a1,1,0,0,1-1,1A1,1,0,0,1-2614.883-5849.486Zm-17.363,0v-4.183a1,1,0,0,1,1-1,1,1,0,0,1,1,1v4.183a1,1,0,0,1-1,1A1,1,0,0,1-2632.246-5849.486Z" transform="translate(2637.519 5855.169)"/></svg>