<svg xmlns="http://www.w3.org/2000/svg" width="152" height="152" viewBox="0 0 152 152"><defs><style>.a{fill:#f9f9f9;stroke:#707070;stroke-width:2px;}.b{fill:#4d4e50;stroke:rgba(0,0,0,0);}.c{stroke:none;}.d{fill:none;}</style></defs><g transform="translate(-134 -2329)"><g class="a" transform="translate(134 2329)"><rect class="c" width="152" height="152" rx="16"/><rect class="d" x="1" y="1" width="150" height="150" rx="15"/></g><path class="b" d="M-5662.654-1815.376h-48.13a4.693,4.693,0,0,1-4.687-4.687v-24.573a4.692,4.692,0,0,1,4.688-4.685h13.211a6.932,6.932,0,0,1,2.4-3.823,6.9,6.9,0,0,1,4.323-1.526h8.269a6.813,6.813,0,0,1,4.324,1.526,6.951,6.951,0,0,1,2.4,3.823h13.209a4.689,4.689,0,0,1,4.683,4.685v24.573A4.69,4.69,0,0,1-5662.654-1815.376Zm-24.028-27.542a10.641,10.641,0,0,0-2.194.228,10.61,10.61,0,0,0-8.371,10.339,10.6,10.6,0,0,0,10.429,10.565h.273a10.509,10.509,0,0,0,7.337-3.092,10.5,10.5,0,0,0,3.1-7.473,10.62,10.62,0,0,0-10.364-10.565Zm16.853-3.269a.9.9,0,0,0-.9.894.9.9,0,0,0,.9.9h4.921a.9.9,0,0,0,.9-.9.9.9,0,0,0-.9-.894Zm-16.853,22.531a8.645,8.645,0,0,1-6.07-2.475l-.074-.073a8.631,8.631,0,0,1-2.548-6.146,8.706,8.706,0,0,1,.246-2.059.057.057,0,0,1,0-.009l.007-.028.007-.028.006-.025.006-.025v-.007l0-.007a8.689,8.689,0,0,1,2.271-3.961,8.637,8.637,0,0,1,6.145-2.546c.123,0,.248,0,.374.008a8.681,8.681,0,0,1,5.6,2.365l.083.08.094.093q.074.074.146.149a8.686,8.686,0,0,1,2.4,6v.02a8.665,8.665,0,0,1-2.547,6.125,8.707,8.707,0,0,1-2.223,1.615A8.608,8.608,0,0,1-5686.682-1823.656Zm-13.034-27.457h-10.316v-.822a2.239,2.239,0,0,1,2.234-2.238h5.845a2.24,2.24,0,0,1,2.236,2.238v.821Z" transform="translate(5896.779 4239.716)"/></g></svg>