<svg xmlns="http://www.w3.org/2000/svg" width="31.285" height="30" viewBox="0 0 31.285 30"><defs><style>.a{fill:#4bbfaa;}</style></defs><path class="a" d="M849.4,241.2l1.031-1.14a4.745,4.745,0,0,0-.335-6.7l-1.741-1.574a4.743,4.743,0,0,0-6.7.334l-1.032,1.142a4.688,4.688,0,0,0-.379.479l-.047.052a5.779,5.779,0,0,0-1.323,5.341,26.61,26.61,0,0,0,23.653,21.392,6.677,6.677,0,0,0,4.078-.851,4.746,4.746,0,0,0,1.158-.934L868.8,257.6a4.749,4.749,0,0,0-.336-6.7l-1.741-1.575a4.742,4.742,0,0,0-6.7.336l-1.032,1.14a4.725,4.725,0,0,0-.978,1.668l-.092.276-.271-.107a19.975,19.975,0,0,1-10.561-9.692l-.146-.293.314-.094A4.735,4.735,0,0,0,849.4,241.2Z" transform="translate(-838.734 -230.561)"/></svg>