<svg xmlns="http://www.w3.org/2000/svg" width="163" height="113.481" viewBox="0 0 163 113.481"><defs><style>.a{fill:#505050;font-size:20px;font-family:Roboto-Regular, Roboto;letter-spacing:0.055em;}.b{fill:#4bbfaa;stroke:rgba(0,0,0,0);}</style></defs><g transform="translate(2312 -4435.519)"><text class="a" transform="translate(-2312 4544)"><tspan x="0" y="0">Graphic &amp;Design</tspan></text><path class="b" d="M7200.512-2089.474a4.981,4.981,0,0,1-4.167-4.661l-.813-20.383a27.591,27.591,0,0,1-13.265-23.565,27.615,27.615,0,0,1,27.583-27.585,27.617,27.617,0,0,1,27.585,27.585,27.587,27.587,0,0,1-12.895,23.335l-.707,20.6a4.952,4.952,0,0,1-4.666,4.728c-.892,2.538-4.725,4.447-9.318,4.447C7205.225-2084.973,7201.369-2086.909,7200.512-2089.474Zm.343-3.776,0,.111a.14.14,0,0,0,.109.087h18.276a.113.113,0,0,0,.094-.074l.124-3.707-.124,3.707a.113.113,0,0,1-.094.074h-18.276a.14.14,0,0,1-.109-.087Zm-.166-4.343.1,2.572,18.732-3.609.087-2.606-.087,2.606-18.732,3.609Zm-.167-4.343.1,2.572,19.044-3.669-19.044,3.669Zm0,0,19.229-3.7v0Zm-.069-1.771,19.357-3.729.013-.322-.013.322-19.357,3.729-.155-4.051Zm12.938-3.451h1.969l.021-.6.473-12.549,8.306-14.887a.982.982,0,0,0-.378-1.339.942.942,0,0,0-.481-.109.906.906,0,0,0-.274-.056h-26.594a.96.96,0,0,0-.508.162l-.011,0c-.007.005-.013.015-.02.018a.9.9,0,0,0-.194.167.971.971,0,0,0-.166,1.153l8.308,14.887.47,12.549h1.971l-.483-12.856a.991.991,0,0,0-.124-.445l-5.431-9.73h.013l-.6-1.061,0,0-1.615-2.9h23.622l-1.613,2.89-.621,1.1h.009l-5.415,9.7a.961.961,0,0,0-.124.445l-.483,12.856Z" transform="translate(-9441.266 6601.687)"/></g></svg>