<svg xmlns="http://www.w3.org/2000/svg" xmlns:xlink="http://www.w3.org/1999/xlink" width="1944" height="124" viewBox="0 0 1944 124"><defs><style>.a{fill:#fff;}.b{fill:#505050;}.c{filter:url(#a);}</style><filter id="a" x="0" y="0" width="1944" height="124" filterUnits="userSpaceOnUse"><feOffset dy="4" input="SourceAlpha"/><feGaussianBlur stdDeviation="4" result="b"/><feFlood flood-opacity="0.161"/><feComposite operator="in" in2="b"/><feComposite in="SourceGraphic"/></filter></defs><g transform="translate(12 9)"><g class="c" transform="matrix(1, 0, 0, 1, -12, -9)"><rect class="a" width="1920" height="100" transform="translate(12 8)"/></g><path class="b" d="M11.133,0,7.793-7.705H7.734V0H1.494V-22.207h6.24V-7.954h.059L10.825-15h7.031L13.8-8.13,18.091,0Zm17.7,0V-2.314H28.77a8.21,8.21,0,0,1-1.4,1.567,5.383,5.383,0,0,1-1.406.806,4.972,4.972,0,0,1-1.824.308,4.537,4.537,0,0,1-3.75-1.6A7.381,7.381,0,0,1,19.1-5.947V-15h6.24v8.584Q25.342-4.2,27-4.2a1.62,1.62,0,0,0,1.37-.6,2.737,2.737,0,0,0,.461-1.7V-15h6.24V0ZM57.51,0V-8.643a2.757,2.757,0,0,0-.388-1.619,1.46,1.46,0,0,0-1.267-.535,1.582,1.582,0,0,0-1.348.652,2.983,2.983,0,0,0-.483,1.809V0h-6.24V-8.5q0-2.3-1.567-2.3a1.659,1.659,0,0,0-1.436.667A3.222,3.222,0,0,0,44.3-8.218V0h-6.24V-15H44.3v2.373h.059a4.836,4.836,0,0,1,1.121-1.282,6.577,6.577,0,0,1,1.736-1.055,5.392,5.392,0,0,1,2.095-.4,5.3,5.3,0,0,1,2.688.63,4.885,4.885,0,0,1,1.824,1.992,5.346,5.346,0,0,1,2.109-1.941,6.287,6.287,0,0,1,2.93-.681,4.409,4.409,0,0,1,3.618,1.538,6.848,6.848,0,0,1,1.26,4.438V0ZM83.247-7.764A7.811,7.811,0,0,1,80.955-1.8,8.958,8.958,0,0,1,74.546.366,8.994,8.994,0,0,1,68.181-1.75,7.577,7.577,0,0,1,65.9-7.588a7.821,7.821,0,0,1,1.069-4.146,6.954,6.954,0,0,1,3.047-2.7,10.519,10.519,0,0,1,4.556-.937,10.189,10.189,0,0,1,4.622.981,7.144,7.144,0,0,1,3,2.725A7.419,7.419,0,0,1,83.247-7.764Zm-6.328.029q0-3.062-2.344-3.062T72.231-7.588Q72.231-4.2,74.6-4.2,76.919-4.2,76.919-7.734ZM95.3,0V-8.188a3.64,3.64,0,0,0-.417-2A1.526,1.526,0,0,0,93.53-10.8a1.466,1.466,0,0,0-1.26.63,2.688,2.688,0,0,0-.454,1.611V0h-6.24V-15h6.24v2.344h.059a5.3,5.3,0,0,1,2.007-2,5.483,5.483,0,0,1,2.739-.71q4.922,0,4.922,6.211V0Zm15.659-19.043A2.68,2.68,0,0,1,110-16.9a3.754,3.754,0,0,1-2.527.82,3.662,3.662,0,0,1-2.5-.85A2.687,2.687,0,0,1,104-19.043a2.6,2.6,0,0,1,.945-2.087,3.786,3.786,0,0,1,2.527-.8,3.822,3.822,0,0,1,2.527.8A2.585,2.585,0,0,1,110.962-19.043ZM104.355,0V-15h6.24V0Zm21.606-.425a5.882,5.882,0,0,1-1.89.571,17.864,17.864,0,0,1-2.974.22,9.147,9.147,0,0,1-4.241-.959,7,7,0,0,1-2.893-2.688,7.463,7.463,0,0,1-1.025-3.882,8.5,8.5,0,0,1,1.091-4.417,7.114,7.114,0,0,1,3.113-2.812,10.679,10.679,0,0,1,4.688-.974,16.4,16.4,0,0,1,2.629.19,4.017,4.017,0,0,1,1.5.439v4.863a4.333,4.333,0,0,0-1.348-.645,5.414,5.414,0,0,0-1.626-.278,3.959,3.959,0,0,0-2.776.872,3.172,3.172,0,0,0-.945,2.454,3.113,3.113,0,0,0,.93,2.41,3.628,3.628,0,0,0,2.556.857,6.366,6.366,0,0,0,3.208-.835Z" transform="translate(113 61)"/></g></svg>