<svg xmlns="http://www.w3.org/2000/svg" width="38.9" height="38.9" viewBox="0 0 38.9 38.9"><defs><style>.a{fill:#222221;}.b{fill:#fff;stroke:rgba(0,0,0,0);}</style></defs><g transform="translate(8.786 8.786)"><path class="a" d="M8.469,0H30.431A8.469,8.469,0,0,1,38.9,8.469V30.431A8.469,8.469,0,0,1,30.431,38.9H8.469A8.469,8.469,0,0,1,0,30.431V8.469A8.469,8.469,0,0,1,8.469,0Z" transform="translate(-8.786 -8.786)"/><path class="b" d="M5449.22-4912.52a7.852,7.852,0,0,1-2.589-.5,5.243,5.243,0,0,1-1.889-1.23,5.216,5.216,0,0,1-1.23-1.891,7.833,7.833,0,0,1-.5-2.586c-.052-1.138-.063-1.5-.063-4.4s.011-3.26.063-4.4a7.857,7.857,0,0,1,.5-2.588,5.225,5.225,0,0,1,1.229-1.889,5.245,5.245,0,0,1,1.89-1.229,7.835,7.835,0,0,1,2.588-.5c1.137-.051,1.5-.063,4.4-.063s3.26.013,4.4.063a7.83,7.83,0,0,1,2.588.5,5.251,5.251,0,0,1,1.89,1.229,5.232,5.232,0,0,1,1.229,1.888,7.792,7.792,0,0,1,.5,2.589c.052,1.137.064,1.5.064,4.4s-.012,3.26-.064,4.4a7.775,7.775,0,0,1-.5,2.587,5.249,5.249,0,0,1-1.229,1.89,5.25,5.25,0,0,1-1.891,1.23,7.861,7.861,0,0,1-2.587.5c-1.138.052-1.5.064-4.4.064S5450.35-4912.47,5449.22-4912.52Zm.088-19.281a5.894,5.894,0,0,0-1.979.367,3.314,3.314,0,0,0-1.228.8,3.319,3.319,0,0,0-.8,1.226,5.891,5.891,0,0,0-.368,1.979c-.051,1.125-.063,1.462-.063,4.31s.012,3.186.063,4.31a5.9,5.9,0,0,0,.368,1.98,3.321,3.321,0,0,0,.8,1.226,3.32,3.32,0,0,0,1.227.8,5.908,5.908,0,0,0,1.98.366c1.125.052,1.462.062,4.309.062s3.186-.01,4.311-.062a5.922,5.922,0,0,0,1.98-.366,3.333,3.333,0,0,0,1.227-.8,3.3,3.3,0,0,0,.8-1.226,5.9,5.9,0,0,0,.367-1.98c.052-1.125.062-1.461.062-4.31s-.01-3.185-.062-4.309a5.882,5.882,0,0,0-.366-1.98,3.308,3.308,0,0,0-.8-1.226,3.319,3.319,0,0,0-1.227-.8,5.907,5.907,0,0,0-1.98-.367c-1.125-.051-1.462-.062-4.311-.062s-3.187.013-4.307.063Zm-1.167,8.681a5.476,5.476,0,0,1,5.476-5.476,5.477,5.477,0,0,1,5.476,5.476,5.477,5.477,0,0,1-5.476,5.478,5.477,5.477,0,0,1-5.477-5.479Zm1.921,0a3.554,3.554,0,0,0,3.555,3.556,3.556,3.556,0,0,0,3.555-3.556,3.554,3.554,0,0,0-3.556-3.556,3.553,3.553,0,0,0-2.516,1.04,3.554,3.554,0,0,0-1.041,2.515Zm7.967-5.691a1.28,1.28,0,0,1,1.28-1.28,1.279,1.279,0,0,1,1.279,1.28,1.279,1.279,0,0,1-1.278,1.278,1.279,1.279,0,0,1-1.279-1.277Z" transform="translate(-5442.951 4933.786)"/></g></svg>