<svg xmlns="http://www.w3.org/2000/svg" width="16.755" height="24" viewBox="0 0 16.755 24"><path d="M-2728.07-5546.667a.351.351,0,0,1-.3-.169l-1.168-1.946h0l-5.04-8.394-.056-.083-.2-.3-.014-.024-.118-.215a8.323,8.323,0,0,1-1.06-4.061,7.5,7.5,0,0,1,7.878-7.806,7.864,7.864,0,0,1,5.695,2.174h0c.087.087.171.174.253.264s.163.188.239.279l.017.022c.069.085.14.178.208.27l.018.027c.069.095.131.185.191.276,0,0,.016.025.018.029.066.1.124.194.178.289l.023.042c.06.106.109.2.155.285l.031.063c.046.091.09.184.133.276.009.02.018.042.027.063l.033.078c.03.07.059.139.087.209.011.029.021.057.032.087l.03.083c.024.063.047.128.069.191.01.028.02.061.03.094l.025.081c.021.065.041.128.06.2.009.033.017.065.025.1l.027.1c.015.061.031.121.046.182.009.042.018.085.027.129l.026.123c.009.046.019.092.028.139s.019.115.028.173l.016.1c.007.039.014.081.019.121s.012.1.018.154l.012.108c.006.047.012.1.016.148s.006.075.008.114l.008.122c0,.061.009.12.011.182.006.141.009.282.009.426a8.232,8.232,0,0,1-.922,3.8c-.008.013-.161.283-.26.468a.318.318,0,0,1-.019.033c-.055.079-.1.145-.133.207s-.074.119-.117.182l-4.915,8.384h0l-1.139,1.943a.348.348,0,0,1-.3.172Zm-4.544-15.555a4.439,4.439,0,0,0,4.454,4.415h.044a4.459,4.459,0,0,0,3.132-1.319c.1-.1.189-.2.271-.3l.032-.042c.077-.1.151-.192.22-.293.013-.02.024-.039.046-.077.061-.094.121-.189.174-.286.014-.026.027-.053.039-.079l.034-.069c.04-.078.079-.156.113-.236.015-.036.028-.072.041-.107l.038-.1c.025-.064.049-.128.07-.193.015-.049.028-.1.04-.15l.029-.112c.015-.052.03-.106.04-.159s.025-.14.034-.21l.015-.1c.007-.041.014-.081.018-.123a4.449,4.449,0,0,0,.022-.449,4.442,4.442,0,0,0-.022-.449c0-.042-.011-.082-.018-.122l-.016-.1c-.01-.072-.02-.143-.034-.21s-.025-.108-.041-.163l-.029-.109c-.012-.051-.025-.1-.04-.15-.021-.066-.045-.13-.07-.194l-.037-.1c-.013-.038-.026-.074-.042-.111-.036-.085-.078-.167-.13-.269l-.016-.035c-.013-.027-.025-.054-.039-.079-.054-.1-.114-.194-.186-.306-.011-.019-.024-.04-.035-.057-.069-.1-.144-.2-.224-.3a.453.453,0,0,0-.029-.038c-.078-.094-.165-.191-.265-.292l-.019-.019a4.441,4.441,0,0,0-3.117-1.307l-.046,0A4.44,4.44,0,0,0-2732.614-5562.222Zm.7,0a3.742,3.742,0,0,1,3.75-3.722h.043a3.736,3.736,0,0,1,2.618,1.089l.022.024a3.033,3.033,0,0,1,.23.254l.025.034c.065.08.129.162.2.266a.439.439,0,0,0,.028.046c.051.078.1.158.146.24a.359.359,0,0,1,.02.042l.038.078c.034.067.069.133.1.206.009.022.017.045.025.067l.045.121c.02.051.039.1.055.152.011.034.02.07.029.1l.034.132c.011.038.021.078.03.118s.019.108.026.164l.02.129c0,.024.008.049.011.074a3.791,3.791,0,0,1,.019.38,3.81,3.81,0,0,1-.019.381c0,.025-.007.049-.012.075l-.02.129c-.007.055-.015.11-.026.164-.008.039-.019.077-.029.115l-.035.133c-.008.036-.016.071-.028.106-.016.052-.035.1-.055.151l-.046.123c-.008.022-.015.043-.024.066-.028.065-.06.129-.093.193l-.016.033c-.01.018-.019.039-.028.059s-.012.025-.019.038c-.045.083-.1.162-.147.242-.01.015-.019.031-.04.064-.058.085-.122.168-.185.247-.01.011-.018.023-.029.038-.068.082-.145.166-.239.261a3.744,3.744,0,0,1-2.627,1.1l-.045,0A3.744,3.744,0,0,1-2731.916-5562.222Z" transform="translate(2736.52 5570.167)" fill="none" stroke="#000" stroke-width="1"/></svg>