<svg xmlns="http://www.w3.org/2000/svg" width="21.367" height="31" viewBox="0 0 21.367 31"><defs><style>.a{fill:#4bbfaa;stroke:rgba(0,0,0,0);}</style></defs><path class="a" d="M-2725.743-5539.669a.452.452,0,0,1-.388-.221l-1.51-2.538h0l-6.514-10.95c-.015-.02-.044-.064-.072-.108l-.256-.394-.018-.031-.153-.281a10.931,10.931,0,0,1-1.369-5.294,9.743,9.743,0,0,1,10.184-10.184,10.12,10.12,0,0,1,7.362,2.837v0c.112.112.221.227.326.344s.211.242.309.363l.022.028c.089.111.181.231.27.353l.023.035c.089.124.17.241.247.361,0,0,.021.033.022.037.086.135.16.254.23.375l.03.056c.078.138.142.253.2.371l.041.085c.059.119.117.237.171.358.012.027.023.055.035.084l.043.1c.039.091.077.18.112.272.014.037.028.075.042.113l.039.11c.031.082.061.165.089.249.012.037.025.08.038.122l.032.106c.026.084.053.168.077.254.012.044.022.085.033.125l.034.135c.02.079.041.159.06.238.012.054.023.11.035.167l.033.161c.011.06.024.12.035.181s.025.151.036.227l.021.135c.008.053.017.1.024.158s.016.135.023.2l.015.14c.008.064.016.129.021.2,0,.047.007.1.01.149l.011.157c0,.079.011.157.015.238.007.183.011.368.011.555a10.805,10.805,0,0,1-1.192,4.96c-.01.018-.208.371-.336.612a.426.426,0,0,1-.025.041c-.071.106-.123.191-.172.271s-.1.155-.152.238l-6.354,10.936h0l-1.472,2.534a.45.45,0,0,1-.388.225Zm-5.873-20.288a5.765,5.765,0,0,0,5.758,5.757l.057,0a5.736,5.736,0,0,0,4.048-1.722c.127-.129.245-.26.351-.39.012-.015.023-.03.041-.054.1-.125.2-.252.285-.383.016-.026.031-.051.06-.1.079-.122.156-.244.225-.374.018-.033.034-.068.05-.1l.045-.091c.051-.1.1-.2.145-.308.019-.045.035-.092.052-.139l.049-.134c.032-.084.063-.167.091-.254.02-.062.035-.128.052-.193l.037-.147c.02-.069.038-.139.052-.207.019-.091.032-.183.044-.276l.02-.137c.01-.052.018-.1.024-.159a5.7,5.7,0,0,0,.029-.584,5.735,5.735,0,0,0-.029-.587c0-.053-.014-.105-.022-.158l-.021-.136c-.012-.093-.025-.186-.043-.273-.014-.072-.032-.143-.052-.213l-.036-.144c-.016-.065-.032-.132-.052-.195-.027-.085-.058-.169-.091-.252l-.048-.13c-.016-.049-.034-.1-.054-.145-.047-.111-.1-.219-.168-.35l-.021-.046c-.017-.035-.032-.07-.051-.105-.071-.128-.147-.25-.241-.4-.015-.026-.031-.052-.045-.074-.089-.133-.186-.26-.29-.392l-.037-.049c-.1-.122-.213-.249-.343-.379l-.024-.027a5.72,5.72,0,0,0-4.029-1.7l-.06,0A5.765,5.765,0,0,0-2731.617-5559.957Zm.9,0a4.86,4.86,0,0,1,4.848-4.856l.056,0a4.819,4.819,0,0,1,3.385,1.42l.028.032q.161.164.3.331l.032.044c.084.1.167.212.257.348a.5.5,0,0,0,.037.059c.065.1.131.207.188.314.01.018.018.035.026.053l.049.1c.044.088.09.175.129.268.011.028.021.058.032.088l.058.158c.025.065.05.129.072.2.014.044.025.091.037.138l.043.171c.013.051.028.1.039.154.014.07.024.141.033.213l.026.168c.005.032.01.065.014.1a4.785,4.785,0,0,1,.024.5,4.786,4.786,0,0,1-.024.495c0,.033-.009.065-.014.1l-.026.169c-.009.071-.019.143-.033.214-.01.051-.025.1-.038.15l-.046.174c-.01.046-.021.092-.035.137-.021.068-.046.133-.072.2l-.06.16c-.01.03-.02.057-.031.086-.036.087-.078.169-.12.252l-.021.042c-.013.025-.025.051-.037.077s-.016.034-.024.05c-.059.107-.124.21-.19.313-.013.019-.025.04-.051.085-.075.112-.158.218-.239.321-.013.016-.023.03-.038.05-.088.107-.188.217-.309.342a4.825,4.825,0,0,1-3.4,1.438l-.059,0A4.862,4.862,0,0,1-2730.715-5559.957Z" transform="translate(2736.519 5570.169)"/></svg>