<svg xmlns="http://www.w3.org/2000/svg" width="142" height="109.015" viewBox="0 0 142 109.015"><defs><style>.a{fill:#4bbfaa;}.b{fill:#505050;font-size:20px;font-family:Roboto-Regular, Roboto;letter-spacing:0.055em;}</style></defs><g transform="translate(2300 -4621.985)"><path class="a" d="M487.633,406.707c-5.851,2.247-9.491,6.937-8.129,10.487s7.208,4.595,13.058,2.347c5.039-1.937,8.431-5.684,8.407-8.953l.009-.011V370.445l0,0v0L465.8,377.234v36.32a15.094,15.094,0,0,0-9.062.807c-5.851,2.247-9.489,6.941-8.129,10.486s7.207,4.6,13.06,2.35c5.1-1.958,8.517-5.776,8.408-9.071l0,0V394.274l26.609-5.134V405.9A15.088,15.088,0,0,0,487.633,406.707ZM470.085,389.4v-3.707l26.609-5.135v3.707Z" transform="translate(-2704.327 4251.54)"/><text class="b" transform="translate(-2300 4726)"><tspan x="0" y="0">Music &amp; Audio</tspan></text></g></svg>