<svg xmlns="http://www.w3.org/2000/svg" width="124" height="117.337" viewBox="0 0 124 117.337"><defs><style>.a{fill:#505050;font-size:20px;font-family:Roboto-Regular, Roboto;letter-spacing:0.055em;}.b{fill:#4bbfaa;stroke:rgba(0,0,0,0);}</style></defs><g transform="translate(1035 -4613.663)"><text class="a" transform="translate(-1035 4726)"><tspan x="0" y="0">Photography</tspan></text><path class="b" d="M6578.869-2415.552v-73.116l61.479.122v73.116Zm7.763-16.952h45.962v-48.314l-45.96-.095h0v0h0v48.409Zm2.363-2.038v-9.329l7.39-10.249,8.688,8.281,11.43-16.817,13.417,14.6v13.515Zm43.6-12.709v0Zm-39.073-17.71a4.536,4.536,0,0,1-4.528-4.543,4.536,4.536,0,0,1,4.543-4.526,4.53,4.53,0,0,1,4.526,4.541,4.533,4.533,0,0,1-4.535,4.528Z" transform="translate(-7582.869 7102.832)"/></g></svg>