<svg xmlns="http://www.w3.org/2000/svg" width="133" height="108.992" viewBox="0 0 133 108.992"><defs><style>.a{fill:#505050;font-size:20px;font-family:Roboto-Regular, Roboto;letter-spacing:0.055em;}.b{fill:#4bbfaa;stroke:rgba(0,0,0,0);}</style></defs><g transform="translate(1654 -4622.008)"><text class="a" transform="translate(-1654 4726)"><tspan x="0" y="0">Programming</tspan></text><path class="b" d="M6281.19-2889.215a4.425,4.425,0,0,1-4.427-4.425,4.425,4.425,0,0,1,.7-2.375h-.028l.057-.048a4.447,4.447,0,0,1,1.873-1.6l6.633-5.677a5.224,5.224,0,0,1-4.888-5.208v-39.871a5.242,5.242,0,0,1,5.239-5.246h65.2a5.241,5.241,0,0,1,5.241,5.246v39.871a5.217,5.217,0,0,1-4.674,5.185l6.442,5.71a4.426,4.426,0,0,1,2.578,4.015,4.426,4.426,0,0,1-4.429,4.425Zm32.646-3.846a.87.87,0,0,0,.867.872h7.377a.879.879,0,0,0,.879-.872.879.879,0,0,0-.879-.873H6314.7A.87.87,0,0,0,6313.835-2893.061Zm-24.6,0a.869.869,0,0,0,.869.872.872.872,0,0,0,.875-.872.872.872,0,0,0-.875-.873A.87.87,0,0,0,6289.236-2893.061Zm-3.716,0a.871.871,0,0,0,.872.872.873.873,0,0,0,.873-.872.873.873,0,0,0-.873-.873A.871.871,0,0,0,6285.52-2893.061Zm-3.471,0a.868.868,0,0,0,.867.872.873.873,0,0,0,.876-.872.873.873,0,0,0-.876-.873A.868.868,0,0,0,6282.049-2893.061Zm-.254-4.566h0Zm0,0,5.72-4.9h1.686l0,0h-1.687ZM6353.539-2898.476ZM6284.355-2898.476Zm66.276-4.047,2.927,2.595-2.927-2.6h-1.774l0,0Zm-64.76-8.606h66.148v-34.716h-66.148Zm32.117-38.479a.957.957,0,0,0,.952.966.961.961,0,0,0,.964-.966.958.958,0,0,0-.964-.956A.954.954,0,0,0,6317.989-2949.608Z" transform="translate(-7906.763 7576.176)"/></g></svg>