<svg xmlns="http://www.w3.org/2000/svg" width="38.9" height="38.9" viewBox="0 0 38.9 38.9"><defs><style>.a{fill:#222221;}.b{fill:#fff;}</style></defs><rect class="a" width="38.9" height="38.9" rx="8.469"/><path class="b" d="M154.112,256.994a12.092,12.092,0,0,0,18.6-10.738,8.61,8.61,0,0,0,2.122-2.2,8.453,8.453,0,0,1-2.442.669,4.255,4.255,0,0,0,1.868-2.352,8.523,8.523,0,0,1-2.7,1.033,4.255,4.255,0,0,0-7.246,3.879,12.071,12.071,0,0,1-8.765-4.443,4.258,4.258,0,0,0,1.316,5.678,4.239,4.239,0,0,1-1.927-.532,4.257,4.257,0,0,0,3.41,4.223,4.243,4.243,0,0,1-1.919.072,4.253,4.253,0,0,0,3.971,2.954,8.541,8.541,0,0,1-6.288,1.757Z" transform="translate(-145.025 -231.033)"/></svg>